<?xml version="1.0" standalone="no"?><svg xmlns="http://www.w3.org/2000/svg" viewBox="0 0 1440 320"><path fill="#090D16" fill-opacity="1" d="M0,320L40,282.7C80,245,160,171,240,154.7C320,139,400,181,480,192C560,203,640,181,720,176C800,171,880,181,960,192C1040,203,1120,213,1200,192C1280,171,1360,117,1400,90.7L1440,64L1440,320L1400,320C1360,320,1280,320,1200,320C1120,320,1040,320,960,320C880,320,800,320,720,320C640,320,560,320,480,320C400,320,320,320,240,320C160,320,80,320,40,320L0,320Z"></path></svg>